ply
format ascii 1.0
comment Created by Open3D
element vertex 778
property double x
property double y
property double z
property uchar red
property uchar green
property uchar blue
element face 1538
property list uchar uint vertex_indices
end_header
54.8611 -16.5868 23.896 0 0 0
48.5445 -19.4356 33.8182 0 0 0
44.0301 -12.6358 23.0528 0 0 0
38.55 -15.6885 31.7815 0 0 0
70.9721 -21.8723 40.2722 0 0 0
79.024 -16.0938 46.4994 0 0 0
60.7107 -21.828 48.9899 0 0 0
66.1452 -16.3672 55.239 0 0 0
33.4036 -14.3556 39.7711 0 0 0
42.6669 -19.3395 41.4269 0 0 0
24.7227 -0.648736 42.8102 0 0 0
25.2837 -8.49768 39.2438 0 0 0
32.4517 -6.59236 44.8112 0 0 0
17.8343 2.25805 40.9343 0 0 0
18.8905 11.265 37.2022 0 0 0
31.5946 9.93449 41.9836 0 0 0
43.2455 23.5453 5.46911 0 0 0
26.9298 22.5554 4.13798 0 0 0
39.4105 22.1407 18.4362 0 0 0
24.5065 20.4829 17.5508 0 0 0
31.1261 20.9781 -4.5282 0 0 0
47.3721 23.2816 -2.77079 0 0 0
38.3828 18.5192 -14.1417 0 0 0
52.8893 20.8988 -11.5724 0 0 0
63.1442 -10.5506 7.52066 0 0 0
60.1396 -12.5105 13.0911 0 0 0
52.7484 -8.38019 8.50054 0 0 0
50.377 -9.60444 13.7759 0 0 0
43.2681 6.77449 50.8661 0 0 0
35.9214 2.60358 48.115 0 0 0
39.0378 1.98939 54.5288 0 0 0
36.0876 -2.9313 52.4215 0 0 0
90.1807 -17.0762 -0.645406 0 0 0
102.056 -11.6591 1.55152 0 0 0
90.4548 -16.0165 4.03659 0 0 0
101.38 -11.3078 7.40904 0 0 0
94.7735 -12.281 31.3859 0 0 0
101.018 -7.79187 26.0965 0 0 0
97.7846 0.665681 39.0533 0 0 0
105.777 1.5798 35.1108 0 0 0
87.555 -14.8946 39.0417 0 0 0
90.8112 -3.55722 45.0357 0 0 0
81.2253 -5.20616 50.4596 0 0 0
68.3875 -7.41457 58.5019 0 0 0
103.386 -9.47304 -11.1029 0 0 0
95.062 -14.0016 -14.2654 0 0 0
-32.2854 -5.14669 30.2561 0 0 0
-27.1423 -5.10693 30.1485 0 0 0
-31.3062 -3.27637 35.9363 0 0 0
-26.988 -3.09994 35.6991 0 0 0
95.9488 15.2328 -23.1844 0 0 0
103.093 13.8601 -23.6363 0 0 0
97.047 5.06007 -23.9986 0 0 0
104.352 4.24445 -22.6418 0 0 0
85.8174 16.5316 -22.1467 0 0 0
87.3667 5.81611 -25.6847 0 0 0
-32.1657 5.27694 39.3901 0 0 0
-27.6229 6.72714 39.2734 0 0 0
-32.3872 9.9003 36.7518 0 0 0
-27.8102 11.2169 36.1118 0 0 0
29.1568 -12.163 32.102 0 0 0
34.4936 -11.6711 23.377 0 0 0
20.9466 -9.73957 25.4624 0 0 0
20.4134 -9.12245 33.0978 0 0 0
9.98413 -9.89697 28.9143 0 0 0
11.9623 -7.74993 35.07 0 0 0
42.6339 -6.92374 4.81219 0 0 0
39.4807 -7.28006 10.7006 0 0 0
31.2509 -6.79391 3.52195 0 0 0
26.7956 -7.96009 11.0919 0 0 0
35.5146 -9.05908 -8.6617 0 0 0
39.1972 -11.0507 -16.1231 0 0 0
47.1955 -9.72724 -8.40592 0 0 0
46.9237 -12.1005 -14.5335 0 0 0
5.7436 -4.87458 -6.43774 0 0 0
6.68479 -3.39799 -9.25747 0 0 0
14.336 -6.95158 -6.10802 0 0 0
15.7641 -6.45555 -9.46713 0 0 0
110.232 13.3241 -23.5769 0 0 0
111.326 3.66703 -20.4324 0 0 0
54.562 2.76768 -36.4936 0 0 0
44.5927 0.0114519 -40.0772 0 0 0
48.514 10.5243 -31.5251 0 0 0
40.678 8.98731 -33.6328 0 0 0
92.97 23.3276 -16.9067 0 0 0
100.505 23.0075 -19.4355 0 0 0
-33.1307 12.5374 31.0557 0 0 0
-28.5468 13.2517 30.2677 0 0 0
79.6417 6.01048 48.6347 0 0 0
66.7126 1.98147 56.9982 0 0 0
89.6928 8.58142 42.3562 0 0 0
97.2931 11.3992 37.7537 0 0 0
105.234 13.2688 36.6757 0 0 0
17.7033 -9.89997 19.162 0 0 0
40.8617 -9.30996 16.3762 0 0 0
54.7169 -8.49648 3.98998 0 0 0
70.0987 -17.0117 -23.3437 0 0 0
64.509 -17.2297 -14.528 0 0 0
59.9687 -16.7134 -25.2139 0 0 0
56.7237 -16.1851 -17.9444 0 0 0
55.2635 -7.86842 -37.2715 0 0 0
52.211 -14.0898 -32.9909 0 0 0
45.6338 -8.86173 -39.5952 0 0 0
43.2577 -13.9034 -34.5867 0 0 0
50.7862 9.25539 53.6225 0 0 0
44.1362 4.77714 59.6719 0 0 0
97.4535 -5.09882 -20.8058 0 0 0
104.086 -4.4561 -17.2268 0 0 0
112.093 -2.69217 -15.4214 0 0 0
90.5769 -15.5476 7.46862 0 0 0
89.0983 -16.154 12.6036 0 0 0
76.5968 -14.9759 4.95934 0 0 0
75.2748 -14.8701 7.85453 0 0 0
80.6055 -20.2565 28.1794 0 0 0
67.023 -21.0747 25.5805 0 0 0
58.8198 -23.4894 36.5683 0 0 0
102.203 -10.2846 15.8518 0 0 0
111.248 -9.66483 9.29944 0 0 0
111.058 -7.87308 18.25 0 0 0
112.151 -9.07177 -0.623365 0 0 0
112.536 -6.73317 -9.49078 0 0 0
45.9651 -19.095 57.7134 0 0 0
40.1015 -16.5824 52.5602 0 0 0
52.7891 -20.4015 53.3317 0 0 0
45.7828 -18.8112 48.0571 0 0 0
9.44878 5.58856 39.7126 0 0 0
10.0586 -2.67594 39.4144 0 0 0
19.684 -4.92092 39.9754 0 0 0
80.494 -18.3351 -7.01664 0 0 0
85.2019 -15.8147 -18.0704 0 0 0
6.30638 -9.15071 23.0543 0 0 0
-23.0224 11.9783 35.4153 0 0 0
-22.8063 7.36613 39.0193 0 0 0
-6.32387 12.8962 35.0114 0 0 0
-5.04079 7.27881 38.843 0 0 0
-0.113314 -6.95069 23.4749 0 0 0
-3.76322 -5.51578 23.2298 0 0 0
-3.21861 -2.83794 18.8156 0 0 0
-7.41223 -2.3758 18.7309 0 0 0
12.5373 -5.06098 -16.8136 0 0 0
20.0478 -7.56774 -17.0406 0 0 0
10.0411 15.8463 14.9413 0 0 0
11.9154 17.418 28.2818 0 0 0
22.2725 17.4954 28.6993 0 0 0
24.1865 -7.74901 -5.30456 0 0 0
25.4281 -8.11867 -9.31404 0 0 0
34.4455 -7.50381 -3.25541 0 0 0
5.08084 -7.71219 17.097 0 0 0
9.60667 -7.09626 12.2861 0 0 0
14.2585 -9.00903 15.6628 0 0 0
17.5943 -8.06715 10.7556 0 0 0
67.2679 -7.03538 -34.5126 0 0 0
66.2755 5.29127 -33.2072 0 0 0
-31.5128 0.530284 39.1068 0 0 0
-27.0995 1.27249 39.0509 0 0 0
45.6319 -7.67284 -1.89848 0 0 0
36.4122 18.3402 28.2993 0 0 0
56.6861 -9.31731 -1.04786 0 0 0
22.5846 3.59015 -28.8827 0 0 0
16.3224 3.24786 -27.8022 0 0 0
23.6895 9.23952 -25.3663 0 0 0
16.0772 8.88631 -26.9234 0 0 0
-23.0591 -4.6689 23.1792 0 0 0
-27.8094 -3.91138 23.8873 0 0 0
-22.987 -0.271124 19.2207 0 0 0
-28.1822 0.483242 19.9064 0 0 0
3.66612 -5.75724 35.4195 0 0 0
-3.27108 -4.61234 34.8762 0 0 0
1.77506 -7.50005 29.2738 0 0 0
-3.82618 -5.91169 28.6879 0 0 0
-3.68383 0.778993 38.8305 0 0 0
2.34965 0.353685 39.081 0 0 0
-23.0191 13.1297 23.1494 0 0 0
-8.14909 12.8644 21.2074 0 0 0
-23.0205 6.47294 18.8539 0 0 0
-10.016 5.12242 18.1106 0 0 0
71.0497 20.0223 -19.1785 0 0 0
56.9662 16.8548 -21.794 0 0 0
67.3137 23.9339 -9.3293 0 0 0
43.8073 14.2891 -24.7946 0 0 0
31.769 10.349 -26.5154 0 0 0
27.2389 16.9237 -16.9339 0 0 0
61.0933 13.6767 -28.2554 0 0 0
1.19615 6.83366 13.6056 0 0 0
2.74727 12.709 19.6278 0 0 0
4.75494 13.0097 13.3873 0 0 0
58.2922 -12.0973 -7.74103 0 0 0
-22.2485 1.87239 39.2023 0 0 0
94.3415 31.3065 13.5728 0 0 0
85.4329 29.8576 15.5374 0 0 0
94.3094 27.7363 25.8675 0 0 0
85.2302 25.3605 28.4948 0 0 0
-22.2684 -6.17596 29.8865 0 0 0
-22.0527 -3.85045 36.0371 0 0 0
20.7348 -7.82461 -23.8653 0 0 0
14.2286 -5.2151 -22.8165 0 0 0
19.6585 -6.81006 -29.4614 0 0 0
13.7022 -3.43423 -26.3534 0 0 0
74.3085 17.0993 -23.3466 0 0 0
38.7923 -0.717671 -42.3025 0 0 0
35.6434 7.5619 -37.0417 0 0 0
80.4148 26.635 -7.90565 0 0 0
90.0898 28.4779 -7.55615 0 0 0
83.4964 22.5613 -16.384 0 0 0
15.3092 17.3966 -6.16508 0 0 0
62.412 25.9125 -1.89869 0 0 0
76.937 27.8957 -0.79124 0 0 0
88.5096 29.8527 0.0787318 0 0 0
97.7522 29.9465 -8.51599 0 0 0
96.784 31.704 -0.37419 0 0 0
-23.4631 14.0413 29.0719 0 0 0
-28.7849 12.6409 23.6629 0 0 0
73.8388 28.318 8.13123 0 0 0
70.2321 27.3877 18.7259 0 0 0
59.8542 25.6263 6.71864 0 0 0
55.1327 24.3444 17.2465 0 0 0
16.2508 21.4172 3.86489 0 0 0
-44.0655 7.31774 21.9035 0 0 0
-33.8625 7.00427 20.3577 0 0 0
-44.2991 3.08404 20.7469 0 0 0
-33.4699 0.884102 20.2411 0 0 0
-28.4247 6.73931 19.5869 0 0 0
-33.3075 11.67 24.373 0 0 0
52.1831 19.9654 29.5213 0 0 0
1.60309 -3.93345 12.7577 0 0 0
69.149 20.812 32.2541 0 0 0
45.2956 14.4893 42.6156 0 0 0
58.2896 14.1831 44.5819 0 0 0
86.2725 19.4664 36.866 0 0 0
74.6003 15.0137 44.0972 0 0 0
103.057 22.6794 32.8398 0 0 0
94.4388 21.4074 34.0108 0 0 0
64.8184 10.1727 51.4348 0 0 0
-42.4433 -3.80003 33.6174 0 0 0
-42.5764 -4.6765 27.9489 0 0 0
102.651 29.6643 24.8871 0 0 0
51.0781 -21.8759 43.8346 0 0 0
68.4235 -14.416 -4.43654 0 0 0
66.6863 -12.0553 0.262244 0 0 0
76.0513 -16.9039 -21.3519 0 0 0
71.5363 -17.8337 -11.1457 0 0 0
-42.2703 -0.211179 37.7086 0 0 0
1.82225 0.35501 -7.80942 0 0 0
4.88362 2.3836 -8.49122 0 0 0
51.7243 -16.5571 62.7668 0 0 0
58.608 -16.891 59.5214 0 0 0
53.1505 -10.8234 66.6564 0 0 0
60.7723 -9.34921 62.8838 0 0 0
51.6333 -3.59123 66.8725 0 0 0
59.2384 -1.38553 62.0409 0 0 0
77.3282 -15.3742 2.4427 0 0 0
77.9023 -16.2557 -1.37949 0 0 0
77.5504 5.24476 -29.4283 0 0 0
77.7071 -6.73342 -30.6457 0 0 0
2.06346 7.08523 38.528 0 0 0
9.3895 12.9947 35.4873 0 0 0
1.59132 12.935 34.3467 0 0 0
-5.8319 15.2825 28.3282 0 0 0
-1.74723 1.38931 13.1755 0 0 0
-2.78922 4.14722 17.6594 0 0 0
84.5892 -18.1483 19.6902 0 0 0
71.9739 -17.2039 14.8119 0 0 0
39.604 -15.173 46.7354 0 0 0
35.9558 -10.662 50.5373 0 0 0
22.2013 -7.48442 3.75397 0 0 0
6.02487 20.0274 3.07566 0 0 0
5.83667 15.7283 -5.3243 0 0 0
12.6073 -6.81831 3.60188 0 0 0
-43.1064 8.38829 36.4829 0 0 0
-42.7061 3.59343 38.5403 0 0 0
2.1284 15.6199 27.9941 0 0 0
28.5901 -10.3702 -16.9317 0 0 0
12.3383 14.0204 -10.4695 0 0 0
3.35757 8.85023 -8.5191 0 0 0
39.9198 -9.32889 -40.9282 0 0 0
-33.4331 -3.85088 23.7021 0 0 0
-42.8725 -2.98817 23.115 0 0 0
-43.2363 10.592 24.9001 0 0 0
-42.4703 11.7087 30.9112 0 0 0
86.8816 -6.68134 -25.1437 0 0 0
64.8758 -10.8809 3.39502 0 0 0
57.2297 6.9213 57.3847 0 0 0
48.5868 2.3389 63.5663 0 0 0
5.6524 -5.36086 3.30723 0 0 0
29.2656 6.91023 -31.3726 0 0 0
19.3114 15.6741 -19.5428 0 0 0
12.5736 15.2837 -21.8944 0 0 0
8.12234 14.8317 -16.0028 0 0 0
109.696 -4.22458 26.0307 0 0 0
4.14431 9.70077 -11.7224 0 0 0
-47.0407 11.0778 30.8189 0 0 0
-47.8136 9.87539 24.8112 0 0 0
-47.9681 8.10537 36.5818 0 0 0
-47.766 3.69224 38.3852 0 0 0
-46.3268 -0.464213 37.0829 0 0 0
-49.0666 6.7884 21.669 0 0 0
-49.4292 2.94832 20.9123 0 0 0
-46.8303 -2.64739 23.0406 0 0 0
-53.7466 5.8049 21.7107 0 0 0
-55.8989 9.15787 25.3075 0 0 0
-56.5169 7.48651 36.4214 0 0 0
-58.7342 8.03276 34.9237 0 0 0
-61.5408 4.7476 37.2821 0 0 0
-63.4078 6.63429 35.098 0 0 0
-68.3655 5.97781 34.0795 0 0 0
-66.9087 3.62489 36.5767 0 0 0
-62.8541 7.75681 30.5636 0 0 0
-56.5614 9.5858 31.1213 0 0 0
-62.6262 7.16649 26.1989 0 0 0
-67.9994 6.63948 26.0392 0 0 0
-68.4525 7.32496 29.9632 0 0 0
-58.4036 8.74265 26.9396 0 0 0
-54.4757 10.3403 31.0832 0 0 0
-70.7395 3.26344 33.9988 0 0 0
-70.9362 5.62383 32.8944 0 0 0
-72.9332 3.68549 29.3318 0 0 0
-71.2845 6.30733 29.4373 0 0 0
-52.5602 3.0504 38.6032 0 0 0
-60.8872 2.12014 37.9256 0 0 0
-66.2398 0.392338 35.7028 0 0 0
-70.1528 0.461252 33.22 0 0 0
-61.0499 -1.67123 35.7979 0 0 0
-65.5452 -1.90561 33.7577 0 0 0
-68.8282 -2.00782 31.2225 0 0 0
-61.1587 -4.31398 32.1037 0 255 0
-65.26 -3.55292 30.8899 0 255 0
-49.2468 -3.7002 33.6752 0 0 0
-49.5126 -0.943311 37.2381 0 0 0
-67.7664 -3.40649 29.982 0 255 0
-72.6314 1.59128 28.4586 0 0 0
-60.7446 6.02341 23.1686 0 0 0
-67.4413 4.41886 23.5616 0 0 0
-60.2912 4.06635 21.7886 0 0 0
-66.973 2.63229 21.9314 0 0 0
-71.6216 4.2589 24.5154 0 0 0
-70.7157 5.91708 26.371 0 0 0
-45.1454 -3.55498 33.0262 0 0 0
-45.5387 -4.31302 27.1037 0 0 0
-49.1669 -4.72607 27.3526 0 0 0
-60.9159 -4.99234 27.1758 0 255 0
-50.4837 -3.04651 23.1047 0 0 0
-53.9614 1.9378 20.9633 0 0 0
-60.8268 1.10773 21.316 0 0 0
-60.7993 -2.32143 22.5286 0 255 0
-65.9776 0.0246839 22.1263 0 0 0
-65.3418 -2.13368 23.6171 0 255 0
-65.346 -4.06354 27.1297 0 255 0
-70.9455 2.09166 23.8093 0 0 0
-69.5011 -0.631508 24.055 0 0 0
-68.0537 -2.01625 24.509 0 255 0
-70.7251 -1.15456 27.6895 0 0 0
-68.3978 -2.56955 27.5218 0 255 0
-34.5614 -2.12511 -5.05504 0 0 0
-29.298 -1.38297 -3.2877 0 0 0
-35.1166 -0.887531 1.36015 0 0 0
-30.3902 -0.190996 2.05614 0 0 0
-35.6047 7.38397 5.73632 0 0 0
-31.4208 8.56998 6.63323 0 0 0
-35.2382 13.3822 3.44911 0 0 0
-30.5407 14.3476 2.99574 0 0 0
-34.1807 16.1393 -2.67945 0 0 0
-28.8678 16.2557 -2.94255 0 0 0
-25.7684 15.5879 3.91225 0 0 0
-26.1305 9.18582 7.4994 0 0 0
-5.4938 15.9651 7.9002 0 0 0
-5.14738 8.71209 10.6795 0 0 0
-1.86472 -3.34851 -3.69398 0 0 0
-3.01808 -0.11682 -6.07269 0 0 0
-35.5631 2.23353 4.38795 0 0 0
-31.1794 3.385 5.45762 0 0 0
-23.7846 -2.89807 -6.49906 0 0 0
-29.0423 -1.18277 -8.30297 0 0 0
-23.1546 0.515716 -10.8559 0 0 0
-28.7337 2.81651 -12.1981 0 0 0
-1.5368 -2.7535 2.45749 0 0 0
-3.10746 -0.537906 8.58483 0 0 0
-4.58274 3.26784 10.2859 0 0 0
-23.1959 13.6032 -10.8444 0 0 0
-4.22239 15.4572 -7.11219 0 0 0
-23 6.94069 -12.6041 0 0 0
-4.35983 8.46163 -9.2966 0 0 0
-26.1656 3.30866 7.20483 0 0 0
-24.79 -3.28285 -0.925669 0 0 0
-25.5423 -1.535 3.92808 0 0 0
-24.2175 17.0481 -3.21649 0 0 0
-28.7745 13.8471 -10.4907 0 0 0
-34.1186 9.06181 -13.5871 0 0 0
-34.4046 3.70312 -13.2161 0 0 0
-46.1494 9.68557 -13.77 0 0 0
-47.2313 4.68073 -14.5787 0 0 0
-28.8519 8.45296 -13.2392 0 0 0
-33.7568 14.0327 -9.96532 0 0 0
-50.2342 -1.48936 -2.47805 0 0 0
-49.8294 -2.11636 -8.65176 0 0 0
-50.3727 1.40309 1.17116 0 0 0
-4.74168 18.8447 0.505814 0 0 0
-47.2005 11.3929 1.64374 0 0 0
-49.2319 5.16222 2.95145 0 0 0
-34.3861 -0.777619 -10.3324 0 0 0
-48.9466 0.360756 -12.8512 0 0 0
-45.663 13.3909 -10.8194 0 0 0
-44.9623 15.1563 -3.87904 0 0 0
-50.7121 14.2458 -4.44956 0 0 0
-50.7183 12.9339 -10.791 0 0 0
-52.929 10.6701 1.26422 0 0 0
-54.191 4.96809 2.14011 0 0 0
-54.3762 1.30875 0.281527 0 0 0
-51.3923 9.83213 -13.8426 0 0 0
-52.4311 5.10369 -15.0628 0 0 0
-52.2954 0.357272 -12.7759 0 0 0
-57.94 8.68216 -15.1489 0 0 0
-58.8898 12.0536 -12.1897 0 0 0
-67.7603 8.39257 -0.974146 0 0 0
-67.8811 10.3844 -2.79567 0 0 0
-73.3715 7.48602 -2.33251 0 0 0
-73.0958 9.90598 -4.07153 0 0 0
-62.1609 10.9748 -0.544214 0 0 0
-63.6241 11.6788 -2.63195 0 0 0
-67.0127 11.4348 -7.53794 0 0 0
-61.4798 12.9553 -6.61012 0 0 0
-65.4 10.7697 -12.2525 0 0 0
-70.8006 10.9646 -13.53 0 0 0
-72.7225 11.879 -8.91964 0 0 0
-61.878 12.304 -10.467 0 0 0
-76.1033 9.68311 -5.91138 0 0 0
-77.466 7.33917 -6.08084 0 0 0
-58.8224 13.695 -5.7425 0 0 0
-58.8871 5.90513 1.78075 0 0 0
-67.8164 5.16515 -0.41747 0 0 0
-73.7131 4.09117 -3.03531 0 0 0
-77.5747 4.68704 -7.7859 0 0 0
-67.9341 1.26578 -2.52306 0 0 255
-73.4988 1.52108 -5.13161 0 0 255
-76.3819 2.54619 -9.19818 0 0 0
-67.4914 -1.70575 -6.40651 0 0 255
-72.8223 -0.61672 -8.84729 0 0 255
-56.5405 -1.70687 -3.66538 0 0 0
-57.7184 1.15542 0.249699 0 0 0
-74.8068 0.862675 -9.99667 0 0 255
-78.0354 6.14032 -11.7915 0 0 0
-77.8136 9.34803 -10.5989 0 0 0
-76.5928 10.6175 -9.93524 0 0 0
-64.8507 9.98493 -14.2014 0 0 0
-70.8751 9.43472 -15.2939 0 0 0
-64.5465 7.90728 -16.1722 0 0 0
-71.3741 7.55071 -16.8764 0 0 0
-75.4065 9.36801 -14.9237 0 0 0
-75.2325 10.5374 -13.5292 0 0 0
-53.4551 -1.13513 -3.37487 0 0 0
-52.5914 -1.56051 -8.91671 0 0 0
-55.2369 -2.20552 -9.27062 0 0 0
-66.193 -1.76961 -11.6267 0 0 255
-54.8893 0.199063 -13.5816 0 0 0
-57.1333 5.0081 -15.873 0 0 0
-64.2102 5.04251 -16.8183 0 0 0
-65.1074 1.16586 -15.5787 0 0 255
-71.026 5.44157 -17.6743 0 0 0
-69.8675 2.4284 -16.3925 0 0 255
-71.3775 -0.554353 -12.705 0 0 255
-75.7255 7.80128 -15.7438 0 0 0
-75.347 5.44757 -16.3141 0 0 0
-73.6355 2.94807 -15.8861 0 0 255
-77.0908 4.10973 -12.3491 0 0 0
-74.9973 1.59141 -12.6709 0 0 255
-20.5591 -1.2335 -20.8667 0 0 0
-18.4647 -4.34453 -25.4006 0 0 0
-16.5663 -1.05298 -19.42 0 0 0
-14.2394 -4.18939 -23.8014 0 0 0
-21.5151 8.15579 -20.561 0 0 0
-17.876 8.41785 -19.1227 0 0 0
-19.9917 11.8981 -23.6268 0 0 0
-15.384 12.3348 -21.9893 0 0 0
-19.5034 12.7172 -29.3051 0 0 0
-13.0457 12.9758 -27.4247 0 0 0
-13.9116 9.17233 -17.8748 0 0 0
0.340561 9.57439 -13.3085 0 0 0
-10.7066 13.8259 -20.7711 0 0 0
2.16318 15.0114 -17.4281 0 0 0
-21.3199 3.33505 -19.8015 0 0 0
-17.9987 3.46224 -18.3405 0 0 0
-9.04221 -4.99735 -26.7483 0 0 0
-12.5218 -4.23619 -29.1131 0 0 0
-7.69877 -2.96146 -31.0424 0 0 0
-11.6948 -2.03437 -32.8874 0 0 0
3.34283 -1.19222 -12.1651 0 0 0
7.15495 -3.12203 -17.321 0 0 0
0.504617 3.38114 -11.838 0 0 0
-6.01205 9.66964 -32.6595 0 0 0
7.28259 9.49213 -29.3646 0 0 0
-6.80373 2.56647 -34.0906 0 0 0
8.27927 3.34828 -29.0175 0 0 0
-14.7407 4.04537 -16.8406 0 0 0
-10.7622 -4.55099 -21.6875 0 0 0
-13.5252 -1.20044 -17.6845 0 0 0
-8.03013 13.7628 -26.4968 0 0 0
-11.6206 9.38265 -33.3953 0 0 0
-31.0853 5.06881 -40.1194 0 0 0
-15.4409 3.73679 -36.6973 0 0 0
-31.5426 0.617587 -39.7505 0 0 0
-16.1703 -1.83665 -34.3991 0 0 0
-11.5196 3.13245 -35.651 0 0 0
-16.7522 9.71805 -34.7842 0 0 0
-35.4169 -1.75288 -26.6872 0 0 0
-33.4562 -4.06588 -31.3601 0 0 0
-34.7332 2.14517 -24.7242 0 0 0
4.9952 15.5089 -24.1627 0 0 0
9.06629 -2.16351 -24.9736 0 0 0
-34.3134 9.34178 -27.1254 0 0 0
-34.7317 5.60108 -24.8919 0 0 0
-16.8276 -4.23041 -30.6666 0 0 0
-32.2084 -3.10479 -36.7336 0 0 0
-30.8632 9.34824 -37.7916 0 0 0
-31.9066 11.8383 -32.1543 0 0 0
-35.9389 10.862 -33.4722 0 0 0
-35.0369 8.59832 -39.1535 0 0 0
-38.4957 9.15627 -28.3838 0 0 0
-38.9792 5.21023 -26.3331 0 0 0
-38.9623 1.66317 -26.2881 0 0 0
-35.5367 4.57076 -41.6266 0 0 0
-36.0527 0.667377 -41.1438 0 0 0
-34.5992 -2.8439 -37.1953 0 0 0
-39.5547 3.8206 -42.7901 0 0 0
-41.5561 8.47254 -40.7133 0 0 0
-50.9894 6.67795 -31.3732 0 0 0
-50.7194 7.18635 -32.5237 0 0 0
-56.2914 6.07725 -33.0502 0 0 0
-56.137 7.1719 -34.3862 0 0 0
-44.8079 8.92398 -30.8319 0 0 0
-46.1495 8.93253 -32.2535 0 0 0
-50.1388 8.8619 -37.6175 0 0 0
-44.3087 9.8105 -35.6326 0 0 0
-47.6686 6.2248 -42.5066 0 0 0
-52.6689 6.13439 -43.4328 0 0 0
-55.3646 8.7762 -39.0516 0 0 0
-43.5699 8.45211 -39.9198 0 0 0
-58.68 6.91817 -36.3116 0 0 0
-59.8109 6.45212 -35.063 0 0 0
-42.0926 10.3784 -35.2588 0 0 0
-44.0646 5.3707 -27.5478 0 0 0
-51.1247 4.17103 -29.7123 0 0 0
-56.5439 3.35372 -31.399 0 0 0
-59.4415 2.83688 -34.4797 0 0 0
-50.5778 0.239519 -30.188 0 0 0
-55.5324 0.334874 -32.1225 0 0 0
-58.2287 0.0551206 -34.8842 0 0 0
-49.6691 -2.56927 -31.986 255 255 0
-54.1956 -2.20967 -33.8904 255 255 0
-42.4039 1.43823 -27.1929 0 0 0
-40.2515 -1.88553 -28.8922 0 0 0
-56.6857 -1.48971 -35.634 255 255 0
-59.7171 2.20052 -40.0014 0 0 0
-59.6985 6.39619 -39.8183 0 0 0
-58.444 7.14332 -39.5381 0 0 0
-46.5308 5.24303 -43.6406 0 0 0
-52.813 4.43468 -45.1181 0 0 0
-45.7484 2.48385 -44.2606 0 0 0
-52.1685 1.69669 -45.4419 0 0 0
-56.8085 5.08468 -43.9785 0 0 0
-56.4952 5.93423 -43.2597 0 0 0
-37.5562 -1.73412 -28.1663 0 0 0
-35.713 -3.68946 -32.4949 0 0 0
-38.4015 -3.89297 -33.0103 0 0 0
-48.4916 -4.4736 -36.1063 255 255 0
-37.1948 -3.1869 -37.6988 0 0 0
-40.0365 0.133534 -42.2047 0 0 0
-46.0596 -0.627888 -43.0622 255 255 0
-47.2083 -3.28186 -40.5095 255 255 0
-51.8401 -0.863337 -44.196 255 255 0
-51.2764 -2.4758 -41.8343 255 255 0
-53.059 -3.93782 -37.4196 255 255 0
-56.5133 2.30552 -44.1698 0 0 0
-55.6311 -0.256534 -42.887 0 0 0
-54.6543 -2.08162 -41.4066 255 255 0
-58.3253 -0.530677 -39.2648 0 0 0
-56.5795 -2.20539 -38.5563 255 255 0
8.98979 -3.67749 -21.6224 0 0 0
3.46568 -8.56712 -50.5155 0 0 0
7.16752 -9.09564 -49.0482 0 0 0
2.07575 -5.32716 -48.1906 0 0 0
6.02087 -6.34551 -45.9314 0 0 0
3.18971 2.32024 -49.0551 0 0 0
6.80348 2.33871 -46.5394 0 0 0
6.0535 4.95326 -51.8062 0 0 0
9.603 4.95911 -49.2419 0 0 0
8.90097 4.28789 -56.0421 0 0 0
12.5829 4.06186 -53.709 0 0 0
9.84466 2.7477 -44.2862 0 0 0
20.9221 3.55157 -34.22 0 0 0
12.2465 5.82005 -47.3865 0 0 0
24.7312 6.82536 -36.9786 0 0 0
34.9471 -8.2652 -42.2392 0 0 0
32.5654 -11.7664 -37.7346 0 0 0
29.2529 -8.3698 -45.071 0 0 0
26.3641 -10.1688 -41.7186 0 0 0
2.03145 -1.38097 -47.8437 0 0 0
5.32144 -2.16489 -45.1494 0 0 0
16.9708 -9.14753 -53.9971 0 0 0
13.8711 -10.8545 -50.5958 0 0 0
12.1412 -9.939 -56.3374 0 0 0
9.48925 -10.7853 -52.2635 0 0 0
28.1152 -11.1274 -34.0931 0 0 0
25.1368 -9.57969 -30.8169 0 0 0
22.9742 -9.81841 -38.0684 0 0 0
21.4803 -7.98955 -33.593 0 0 0
18.3145 -3.34037 -31.9246 0 0 0
18.4124 -5.64797 -55.9373 0 0 0
18.4858 0.187033 -55.7559 0 0 0
32.1944 -4.30231 -46.2712 0 0 0
32.6232 0.780678 -46.7757 0 0 0
8.15635 -1.71118 -43.1078 0 0 0
10.8543 -9.7712 -47.2551 0 0 0
9.04767 -6.81461 -44.3097 0 0 0
14.4563 -0.457522 -57.7257 0 0 0
15.7271 5.21458 -52.2321 0 0 0
10.7023 -6.26558 -60.3941 0 0 0
8.26217 -9.9177 -57.9169 0 0 0
2.90835 -5.82239 -64.765 0 0 0
1.49469 -8.33258 -63.227 0 0 0
14.3611 -6.06595 -58.2952 0 0 0
10.7158 -0.237644 -60.1154 0 0 0
-5.14435 -4.94764 -53.1133 0 0 0
-2.78165 -8.62285 -56.2747 0 0 0
-5.21836 -1.62843 -52.5789 0 0 0
28.9361 6.97019 -42.4242 0 0 0
-2.11463 4.24745 -56.5748 0 0 0
-4.7121 1.69403 -53.804 0 0 0
5.49033 -10.1666 -53.9202 0 0 0
-0.516079 -9.52169 -60.0697 0 0 0
3.2402 -1.15976 -64.6457 0 0 0
1.64119 3.86759 -61.2006 0 0 0
-2.17879 3.54212 -62.5134 0 0 0
-0.680153 -1.12643 -66.4454 0 0 0
-6.41636 3.33453 -57.7057 0 0 0
-7.49076 0.754787 -54.9928 0 0 0
-7.84558 -2.39808 -53.9166 0 0 0
-0.701438 -5.86869 -66.6218 0 0 0
-1.54568 -8.50188 -64.801 0 0 0
-2.71881 -9.7408 -61.2454 0 0 0
-6.47652 -1.58661 -68.2632 0 0 0
-4.4315 -6.05542 -68.3796 0 0 0
-19.0855 -2.57914 -63.5052 0 0 0
-15.9812 -1.41716 -61.4891 0 0 0
-18.9856 -1.80785 -64.2497 0 0 0
-15.4322 -1.0901 -62.5306 0 0 0
-11.4665 1.06778 -60.3039 0 0 0
-11.8125 0.687317 -61.8783 0 0 0
-13.4618 -0.348308 -66.4408 0 0 0
-9.07826 0.998857 -64.3083 0 0 0
-11.3879 -3.45921 -70.3378 0 0 0
-16.6288 -0.944714 -68.2558 0 0 0
-15.1338 -4.04055 -71.5863 0 0 0
-8.36185 -0.980018 -68.02 0 0 0
-20.6445 -1.85143 -66.2701 0 0 0
-21.6314 -2.56083 -66.1058 0 0 0
-7.60888 2.11234 -63.8367 0 0 0
-11.5164 -1.01595 -56.6825 0 0 0
-17.0996 -3.16153 -59.9975 0 0 0
-20.6834 -4.12346 -63.0673 0 0 0
-21.9862 -4.71422 -66.3385 0 0 0
-16.1975 -5.35688 -58.9509 0 0 0
-20.6004 -6.35646 -62.571 0 0 0
-21.8625 -6.87646 -65.8361 0 0 0
-14.703 -8.44414 -59.168 0 0 0
-19.105 -8.49506 -62.8125 0 0 0
-10.7741 -4.08223 -55.4403 0 0 0
-8.95334 -7.37916 -55.7585 0 0 0
-20.5905 -7.97518 -65.4566 0 0 0
-20.616 -2.88238 -69.8707 0 0 0
-21.1007 -5.66444 -69.3338 0 0 0
-19.5994 -1.82923 -69.9562 0 0 0
-10.6131 -4.58865 -70.7918 0 0 0
-15.1736 -5.47402 -72.2188 0 0 0
-9.92236 -7.11612 -70.6085 0 0 0
-15.3619 -7.60407 -71.7644 0 0 0
-18.496 -4.80402 -72.0074 0 0 0
-17.7537 -3.39876 -71.4782 0 0 0
-7.27031 -6.32342 -54.6831 0 0 0
-4.8241 -8.76461 -57.2556 0 0 0
-6.56212 -9.7746 -58.6112 0 0 0
-12.4767 -10.9 -61.6451 255 0 255
-4.53536 -10.3581 -62.7377 0 0 0
-3.94726 -8.6817 -66.3941 0 0 0
-10.0571 -9.37058 -68.9631 0 0 0
-10.8849 -11.0916 -65.9821 255 0 255
-15.8867 -9.26893 -70.424 0 0 0
-16.1375 -10.6842 -67.7178 255 0 255
-17.3105 -10.5253 -64.6975 255 0 255
-19.3164 -6.76687 -71.1538 0 0 0
-19.3508 -8.07498 -69.8332 0 0 0
-19.0451 -9.21972 -68.3277 0 0 0
-20.8507 -7.40999 -68.3884 0 0 0
-19.8233 -8.88924 -66.9885 0 0 0
34.5873 -4.71285 -44.27 0 0 0
33.8004 -0.27375 66.7352 0 0 0
30.2687 -2.06822 62.3817 0 0 0
28.1131 -13.6299 59.767 0 0 0
32.2491 -19.1644 62.2949 0 0 0
36.8679 -20.6584 67.2576 0 0 0
42.8447 -13.357 73.8672 0 0 0
41.2533 -18.1671 70.74 0 0 0
27.4482 -7.31728 59.6923 0 0 0
38.4265 -1.06172 71.2149 0 0 0
42.4769 -6.30505 74.365 0 0 0
31.7327 -1.75236 74.9423 0 0 0
35.8462 -7.48593 78.6278 0 0 0
36.3215 -14.6497 79.0843 0 0 0
35.2389 -20.1825 74.9118 0 0 0
32.6695 -22.5561 71.0468 0 0 0
27.7534 -1.58537 69.2624 0 0 0
24.7409 -3.77695 64.7716 0 0 0
23.745 -9.80643 61.5328 0 0 0
16.4368 -6.50974 80.4016 0 0 0
20.1753 -3.83588 71.2526 0 0 0
18.1369 -21.6037 87.5504 0 0 0
17.2996 -18.7106 88.3394 0 0 0
12.6269 -21.9032 91.2677 0 0 0
12.7555 -19.1542 92.208 0 0 0
22.093 -18.4466 85.6597 0 0 0
20.1084 -16.8662 86.1385 0 0 0
19.2729 -11.8724 84.3745 0 0 0
15.1467 -12.4377 87.6184 0 0 0
15.7265 -8.3961 82.2459 0 0 0
12.0883 -8.44008 83.4698 0 0 0
10.9858 -12.6713 91.0328 0 0 0
9.91825 -17.4677 94.3379 0 0 0
7.21411 -13.3385 93.6005 0 0 0
7.96095 -20.1892 93.4011 0 0 0
20.7693 -10.7433 85.0019 0 0 0
26.5925 -22.1579 81.1001 0 0 0
18.8809 -24.2776 84.6592 0 0 0
11.7676 -24.4288 88.2171 0 0 0
6.46735 -21.8704 90.8094 0 0 0
17.5288 -25.9287 80.2334 0 0 0
10.8075 -24.7877 83.5939 0 0 0
5.8827 -21.9424 85.5546 0 0 0
15.2502 -24.7608 75.6064 255 0 0
9.47009 -23.0551 79.9525 255 0 0
27.6898 -24.4941 74.5506 0 0 0
25.7801 -22.5087 67.9149 0 0 0
6.43567 -21.2402 82.6839 255 0 0
2.75272 -16.5984 90.229 0 0 0
4.39054 -14.7587 93.2301 0 0 0
11.0125 -6.66116 80.4661 0 0 0
8.04876 -8.31267 86.9113 0 0 0
6.24479 -7.89512 84.088 0 0 0
10.6836 -6.78734 76.2339 0 0 0
5.11103 -8.90177 81.3369 0 0 0
3.71058 -10.1203 88.6992 0 0 0
6.37801 -9.79952 90.3158 0 0 0
29.5025 -21.1723 65.5455 0 0 0
26.4634 -16.0233 61.9549 0 0 0
23.0795 -17.1018 63.9112 0 0 0
12.7195 -19.6875 70.9963 255 0 0
19.7009 -11.2832 63.3848 0 0 0
18.8771 -5.86774 66.8543 0 0 0
10.0244 -8.96786 72.9051 0 0 0
10.6964 -13.4758 70.4592 255 0 0
4.97193 -11.7677 78.6822 0 0 0
5.85986 -14.5963 77.403 255 0 0
7.35412 -19.5098 77.8237 255 0 0
2.45446 -11.6198 85.8339 0 0 0
2.91337 -14.2002 82.9972 0 0 0
3.13157 -17.9582 85.5629 0 0 0
4.74717 -18.6208 82.1269 255 0 0
4.23174 -15.6716 80.8665 255 0 0
37.9906 -13.6117 -35.6383 0 0 0
34.2815 -13.8848 -30.0366 0 0 0
41.0145 -14.8668 -29.5583 0 0 0
50.2501 -16.2345 -27.554 0 0 0
60.242 -14.2916 -30.6714 0 0 0
48.1482 -14.9845 -20.9918 0 0 0
38.7773 -13.6401 -23.6361 0 0 0
29.0741 -11.2758 -24.7486 0 0 0
54.2429 -13.0503 -12.8779 0 0 0
108.755 25.2953 -21.0218 0 0 0
106.614 32.8787 -10.1342 0 0 0
105.306 34.1701 -0.860389 0 0 0
103.445 32.8982 12.7599 0 0 0
3 0 1 2
3 2 1 3
3 4 5 6
3 6 5 7
3 8 3 9
3 9 3 1
3 10 11 12
3 12 11 8
3 13 10 14
3 14 10 15
3 16 17 18
3 18 17 19
3 20 21 22
3 22 21 23
3 24 25 26
3 26 25 27
3 28 29 30
3 30 29 31
3 32 33 34
3 34 33 35
3 36 37 38
3 38 37 39
3 40 41 5
3 5 41 42
3 5 42 7
3 7 42 43
3 44 33 45
3 45 33 32
3 46 47 48
3 48 47 49
3 50 51 52
3 52 51 53
3 54 50 55
3 55 50 52
3 56 57 58
3 58 57 59
3 60 61 3
3 3 61 2
3 62 63 64
3 64 63 65
3 66 67 68
3 68 67 69
3 70 71 72
3 72 71 73
3 74 75 76
3 76 75 77
3 51 78 53
3 53 78 79
3 80 81 82
3 82 81 83
3 84 85 50
3 50 85 51
3 58 59 86
3 86 59 87
3 88 89 42
3 42 89 43
3 42 41 88
3 88 41 90
3 38 39 91
3 91 39 92
3 93 69 62
3 62 69 67
3 11 60 8
3 8 60 3
3 26 27 67
3 67 27 94
3 95 26 66
3 66 26 67
3 96 97 98
3 98 97 99
3 100 101 102
3 102 101 103
3 104 28 105
3 105 28 30
3 52 53 106
3 106 53 107
3 53 79 107
3 107 79 108
3 109 110 111
3 111 110 112
3 113 4 114
3 114 4 115
3 113 40 4
3 4 40 5
3 34 35 109
3 109 35 116
3 35 117 116
3 116 117 118
3 33 119 35
3 35 119 117
3 33 44 119
3 119 44 120
3 121 122 123
3 123 122 124
3 125 126 13
3 13 126 127
3 32 128 45
3 45 128 129
3 130 93 64
3 64 93 62
3 131 132 133
3 133 132 134
3 135 136 137
3 137 136 138
3 75 139 77
3 77 139 140
3 141 142 19
3 19 142 143
3 144 145 146
3 146 145 70
3 147 148 149
3 149 148 150
3 80 100 81
3 81 100 102
3 100 80 151
3 151 80 152
3 153 154 56
3 56 154 57
3 155 66 146
3 146 66 68
3 156 143 15
3 15 143 14
3 66 155 95
3 95 155 157
3 126 65 127
3 127 65 63
3 158 159 160
3 160 159 161
3 162 163 164
3 164 163 165
3 166 167 168
3 168 167 169
3 170 167 171
3 171 167 166
3 172 173 174
3 174 173 175
3 176 177 178
3 178 177 23
3 179 180 22
3 22 180 181
3 82 182 80
3 80 182 152
3 183 184 185
3 185 184 141
3 155 72 157
3 157 72 186
3 187 132 154
3 154 132 57
3 168 169 135
3 135 169 136
3 146 70 155
3 155 70 72
3 188 189 190
3 190 189 191
3 163 162 47
3 47 162 192
3 193 187 49
3 49 187 154
3 194 195 196
3 196 195 197
3 22 23 179
3 179 23 177
3 143 156 19
3 19 156 18
3 179 177 82
3 82 177 182
3 198 182 176
3 176 182 177
3 199 200 81
3 81 200 83
3 201 202 203
3 203 202 84
3 204 20 181
3 181 20 22
3 178 23 205
3 205 23 21
3 205 206 178
3 178 206 201
3 206 207 201
3 201 207 202
3 208 202 209
3 209 202 207
3 178 201 176
3 176 201 203
3 210 172 87
3 87 172 211
3 85 84 208
3 208 84 202
3 189 212 213
3 212 214 213
3 213 214 215
3 214 16 215
3 215 16 18
3 17 216 19
3 19 216 141
3 217 218 219
3 219 218 220
3 174 221 172
3 172 221 211
3 222 86 211
3 211 86 87
3 215 18 223
3 223 18 156
3 131 210 59
3 59 210 87
3 137 224 147
3 147 224 148
3 189 188 207
3 207 188 209
3 225 191 213
3 213 191 189
3 226 227 223
3 223 227 225
3 228 229 90
3 90 229 88
3 230 231 92
3 92 231 91
3 225 227 229
3 229 227 232
3 48 233 46
3 46 233 234
3 235 190 230
3 230 190 231
3 4 6 115
3 115 6 236
3 237 238 186
3 186 238 157
3 239 240 96
3 96 240 97
3 153 241 48
3 48 241 233
3 74 242 75
3 75 242 243
3 244 121 245
3 245 121 123
3 246 247 248
3 248 247 249
3 109 111 34
3 34 111 250
3 251 32 250
3 250 32 34
3 252 253 152
3 152 253 151
3 64 168 130
3 130 168 135
3 65 166 64
3 64 166 168
3 171 166 126
3 126 166 65
3 126 125 171
3 171 125 254
3 125 255 254
3 254 255 256
3 210 131 257
3 257 131 133
3 258 259 183
3 183 259 184
3 110 260 112
3 112 260 261
3 12 262 263
3 229 228 225
3 225 228 191
3 150 264 69
3 69 264 68
3 174 175 164
3 164 175 138
3 149 150 93
3 93 150 69
3 265 216 266
3 266 216 204
3 264 150 267
3 267 150 148
3 120 44 108
3 108 44 107
3 48 49 153
3 153 49 154
3 58 268 56
3 56 268 269
3 142 270 255
3 255 270 256
3 271 145 140
3 140 145 77
3 144 264 76
3 76 264 267
3 204 272 266
3 266 272 273
3 192 193 47
3 47 193 49
3 57 132 59
3 59 132 131
3 81 102 199
3 199 102 274
3 145 144 77
3 77 144 76
3 242 273 243
3 243 273 272
3 180 179 83
3 83 179 82
3 46 234 275
3 275 234 276
3 222 218 277
3 277 218 217
3 218 221 220
3 220 221 165
3 275 276 220
3 220 276 219
3 164 165 174
3 174 165 221
3 259 258 137
3 137 258 224
3 13 14 125
3 125 14 255
3 215 223 213
3 213 223 225
3 86 222 278
3 278 222 277
3 255 14 142
3 142 14 143
3 239 96 253
3 253 96 151
3 56 269 153
3 153 269 241
3 106 279 52
3 52 279 55
3 238 280 157
3 157 280 95
3 229 232 88
3 88 232 89
3 45 129 106
3 106 129 279
3 247 246 245
3 245 246 244
3 280 24 95
3 95 24 26
3 104 105 281
3 281 105 282
3 267 148 283
3 283 148 224
3 137 147 135
3 135 147 130
3 180 284 160
3 160 284 158
3 285 286 272
3 272 286 287
3 147 149 130
3 130 149 93
3 257 270 173
3 173 270 184
3 141 184 142
3 142 184 270
3 268 58 278
3 278 58 86
3 170 134 187
3 187 134 132
3 109 116 110
3 110 116 37
3 116 118 37
3 37 118 288
3 110 37 260
3 260 37 36
3 281 282 249
3 249 282 248
3 223 156 226
3 226 156 15
3 218 222 221
3 221 222 211
3 146 68 144
3 144 68 264
3 220 165 275
3 275 165 163
3 197 159 196
3 196 159 158
3 44 45 107
3 107 45 106
3 275 163 46
3 46 163 47
3 160 161 285
3 285 161 286
3 37 288 39
3 287 289 272
3 272 289 243
3 278 277 290
3 290 277 291
3 278 290 268
3 268 290 292
3 269 268 293
3 293 268 292
3 241 269 294
3 294 269 293
3 277 217 291
3 291 217 295
3 217 219 295
3 295 219 296
3 296 219 297
3 297 219 276
3 298 299 295
3 295 299 291
3 300 301 302
3 302 301 303
3 304 305 303
3 303 305 302
3 303 301 306
3 306 301 307
3 308 309 306
3 306 309 310
3 307 311 306
3 306 311 308
3 312 299 307
3 307 299 311
3 310 304 306
3 306 304 303
3 313 314 315
3 315 314 316
3 314 313 304
3 304 313 305
3 307 301 312
3 312 301 300
3 300 292 312
3 312 292 290
3 300 317 292
3 292 317 293
3 302 318 300
3 300 318 317
3 318 302 319
3 319 302 305
3 299 312 291
3 291 312 290
3 313 320 305
3 305 320 319
3 318 319 321
3 321 319 322
3 319 320 322
3 322 320 323
3 321 322 324
3 324 322 325
3 324 326 321
3 321 326 327
3 328 325 323
3 323 325 322
3 318 321 317
3 317 321 327
3 317 327 293
3 293 327 294
3 320 313 329
3 329 313 315
3 308 311 330
3 330 311 299
3 330 331 308
3 308 331 309
3 299 298 330
3 330 298 332
3 331 330 333
3 333 330 332
3 331 334 309
3 309 334 335
3 241 294 233
3 233 294 336
3 234 337 276
3 276 337 297
3 337 234 336
3 336 234 233
3 336 326 337
3 337 326 338
3 326 324 338
3 338 324 339
3 337 338 297
3 297 338 340
3 336 294 326
3 326 294 327
3 341 296 340
3 340 296 297
3 341 298 296
3 296 298 295
3 342 332 341
3 341 332 298
3 342 341 343
3 343 341 340
3 344 342 345
3 345 342 343
3 338 339 340
3 340 339 343
3 339 346 343
3 343 346 345
3 332 342 333
3 333 342 344
3 347 333 348
3 348 333 344
3 348 349 350
3 350 349 351
3 348 344 349
3 349 344 345
3 348 350 347
3 347 350 329
3 347 329 334
3 334 329 315
3 334 331 347
3 347 331 333
3 324 325 339
3 339 325 346
3 351 346 328
3 328 346 325
3 351 349 346
3 346 349 345
3 350 351 323
3 323 351 328
3 323 320 350
3 350 320 329
3 304 310 314
3 314 310 316
3 316 335 315
3 315 335 334
3 316 310 335
3 335 310 309
3 133 134 256
3 256 134 254
3 136 162 138
3 138 162 164
3 169 167 192
3 192 167 193
3 167 170 193
3 193 170 187
3 175 173 259
3 259 173 184
3 169 192 136
3 136 192 162
3 133 256 257
3 257 256 270
3 175 259 138
3 138 259 137
3 257 173 210
3 210 173 172
3 134 170 254
3 254 170 171
3 352 353 354
3 354 353 355
3 356 357 358
3 358 357 359
3 358 359 360
3 360 359 361
3 362 363 364
3 364 363 365
3 74 366 242
3 242 366 367
3 368 369 356
3 356 369 357
3 370 371 372
3 372 371 373
3 283 224 374
3 374 224 375
3 376 375 258
3 258 375 224
3 377 378 379
3 379 378 380
3 381 363 369
3 369 363 357
3 74 283 366
3 366 283 374
3 371 370 353
3 353 370 382
3 383 381 355
3 355 381 369
3 384 377 361
3 361 377 385
3 386 387 388
3 388 387 389
3 377 379 385
3 385 379 390
3 391 360 385
3 385 360 361
3 384 361 362
3 362 361 359
3 354 392 352
3 352 392 393
3 368 394 354
3 354 394 392
3 384 362 395
3 395 362 364
3 379 380 372
3 372 380 367
3 354 355 368
3 368 355 369
3 358 396 356
3 356 396 397
3 382 383 353
3 353 383 355
3 357 363 359
3 359 363 362
3 352 393 398
3 398 393 399
3 391 386 400
3 400 386 388
3 386 390 387
3 387 390 373
3 387 398 389
3 389 398 399
3 372 373 379
3 379 373 390
3 360 391 401
3 401 391 400
3 356 397 368
3 368 397 394
3 265 266 395
3 395 266 378
3 396 358 401
3 401 358 360
3 376 365 381
3 381 365 363
3 386 391 390
3 390 391 385
3 387 373 398
3 398 373 371
3 398 371 352
3 352 371 353
3 401 400 402
3 402 400 403
3 401 402 396
3 396 402 404
3 396 404 397
3 397 404 405
3 397 405 394
3 394 405 406
3 400 388 403
3 403 388 407
3 388 389 407
3 407 389 408
3 389 399 408
3 408 399 409
3 410 411 407
3 407 411 403
3 412 413 414
3 414 413 415
3 416 417 412
3 412 417 413
3 413 417 418
3 418 417 419
3 420 421 418
3 418 421 422
3 419 423 418
3 418 423 420
3 422 415 418
3 418 415 413
3 415 424 414
3 414 424 425
3 419 417 426
3 426 417 416
3 416 404 426
3 426 404 402
3 416 427 404
3 404 427 405
3 412 428 416
3 416 428 427
3 429 428 414
3 414 428 412
3 426 411 419
3 419 411 423
3 411 426 403
3 403 426 402
3 430 429 425
3 425 429 414
3 428 429 431
3 431 429 432
3 429 430 432
3 432 430 433
3 431 432 434
3 434 432 435
3 434 436 431
3 431 436 437
3 433 438 432
3 432 438 435
3 431 437 428
3 428 437 427
3 427 437 405
3 405 437 406
3 430 425 439
3 439 425 440
3 425 424 440
3 440 424 441
3 420 423 442
3 442 423 411
3 421 420 443
3 443 420 442
3 411 410 442
3 442 410 444
3 442 444 443
3 443 444 445
3 446 447 443
3 443 447 421
3 441 447 440
3 440 447 446
3 394 406 392
3 392 406 448
3 393 449 399
3 399 449 409
3 449 393 448
3 448 393 392
3 448 436 449
3 449 436 450
3 436 434 450
3 450 434 451
3 449 450 409
3 409 450 452
3 436 448 437
3 437 448 406
3 453 408 452
3 452 408 409
3 453 410 408
3 408 410 407
3 453 454 410
3 410 454 444
3 454 453 455
3 455 453 452
3 456 454 457
3 457 454 455
3 450 451 452
3 452 451 455
3 451 458 455
3 455 458 457
3 454 456 444
3 444 456 445
3 459 445 460
3 460 445 456
3 460 461 462
3 462 461 463
3 460 456 461
3 461 456 457
3 460 462 459
3 459 462 439
3 459 439 446
3 446 439 440
3 446 443 459
3 459 443 445
3 434 435 451
3 451 435 458
3 463 458 438
3 438 458 435
3 463 461 458
3 458 461 457
3 462 463 433
3 433 463 438
3 433 430 462
3 462 430 439
3 415 422 424
3 424 422 441
3 441 422 447
3 447 422 421
3 364 365 185
3 185 365 183
3 366 370 367
3 367 370 372
3 374 375 382
3 382 375 383
3 375 376 383
3 383 376 381
3 380 378 273
3 273 378 266
3 374 382 366
3 366 382 370
3 395 364 265
3 265 364 185
3 380 273 367
3 367 273 242
3 395 378 384
3 384 378 377
3 365 376 183
3 183 376 258
3 216 265 141
3 141 265 185
3 216 17 204
3 204 17 20
3 17 16 20
3 20 16 21
3 16 214 21
3 21 214 205
3 464 465 466
3 466 465 467
3 468 469 470
3 470 469 471
3 470 471 472
3 472 471 473
3 474 475 476
3 476 475 477
3 478 479 468
3 468 479 469
3 480 481 482
3 482 481 483
3 484 485 75
3 75 485 139
3 486 484 243
3 243 484 75
3 487 488 489
3 489 488 490
3 491 474 479
3 479 474 469
3 480 492 481
3 481 492 467
3 493 491 466
3 466 491 479
3 494 487 473
3 473 487 495
3 496 497 498
3 498 497 499
3 487 489 495
3 495 489 500
3 501 472 495
3 495 472 473
3 494 473 476
3 476 473 471
3 464 502 465
3 465 502 503
3 478 504 464
3 464 504 502
3 476 477 494
3 494 477 505
3 489 490 482
3 482 490 506
3 478 464 479
3 479 464 466
3 470 507 468
3 468 507 508
3 492 493 467
3 467 493 466
3 469 474 471
3 471 474 476
3 465 503 509
3 509 503 510
3 501 497 511
3 511 497 496
3 499 497 483
3 483 497 500
3 509 510 499
3 499 510 498
3 482 483 489
3 489 483 500
3 472 501 512
3 512 501 511
3 468 508 478
3 478 508 504
3 505 286 488
3 488 286 161
3 507 470 512
3 512 470 472
3 486 475 491
3 491 475 474
3 497 501 500
3 500 501 495
3 499 483 509
3 509 483 481
3 509 481 465
3 465 481 467
3 512 511 513
3 513 511 514
3 512 513 507
3 507 513 515
3 507 515 508
3 508 515 516
3 508 516 504
3 504 516 517
3 511 496 514
3 514 496 518
3 496 498 518
3 518 498 519
3 519 498 520
3 520 498 510
3 521 522 518
3 518 522 514
3 523 524 525
3 525 524 526
3 527 528 523
3 523 528 524
3 524 528 529
3 529 528 530
3 531 532 529
3 529 532 533
3 530 534 529
3 529 534 531
3 533 526 529
3 529 526 524
3 535 536 526
3 526 536 525
3 528 527 530
3 530 527 537
3 527 515 537
3 537 515 513
3 527 538 515
3 515 538 516
3 523 539 527
3 527 539 538
3 539 523 540
3 540 523 525
3 530 537 534
3 534 537 522
3 522 537 514
3 514 537 513
3 536 541 525
3 525 541 540
3 542 539 543
3 543 539 540
3 541 544 540
3 540 544 543
3 545 542 546
3 546 542 543
3 542 545 547
3 547 545 548
3 544 549 543
3 543 549 546
3 539 542 538
3 538 542 547
3 538 547 516
3 516 547 517
3 541 536 550
3 550 536 551
3 536 535 551
3 551 535 552
3 531 534 553
3 553 534 522
3 532 531 554
3 554 531 553
3 522 521 553
3 553 521 555
3 554 553 556
3 556 553 555
3 554 557 532
3 532 557 558
3 552 558 551
3 551 558 557
3 504 517 502
3 502 517 559
3 503 560 510
3 510 560 520
3 560 503 559
3 559 503 502
3 559 548 560
3 560 548 561
3 548 545 561
3 561 545 562
3 560 561 520
3 520 561 563
3 559 517 548
3 548 517 547
3 564 519 563
3 563 519 520
3 564 521 519
3 519 521 518
3 565 555 564
3 564 555 521
3 565 564 566
3 566 564 563
3 567 565 568
3 568 565 566
3 561 562 563
3 563 562 566
3 562 569 566
3 566 569 568
3 565 567 555
3 555 567 556
3 570 556 571
3 571 556 567
3 571 572 573
3 573 572 574
3 571 567 572
3 572 567 568
3 571 573 570
3 570 573 550
3 570 550 557
3 557 550 551
3 557 554 570
3 570 554 556
3 545 546 562
3 562 546 569
3 574 569 549
3 549 569 546
3 574 572 569
3 569 572 568
3 574 549 573
3 573 549 544
3 544 541 573
3 573 541 550
3 526 533 535
3 535 533 552
3 552 533 558
3 558 533 532
3 475 289 477
3 477 289 287
3 575 480 506
3 506 480 482
3 485 484 492
3 492 484 493
3 484 486 493
3 493 486 491
3 159 490 161
3 161 490 488
3 575 485 480
3 480 485 492
3 477 287 505
3 505 287 286
3 490 159 506
3 506 159 197
3 488 487 505
3 505 487 494
3 475 486 289
3 289 486 243
3 576 577 578
3 578 577 579
3 580 581 582
3 582 581 583
3 582 583 584
3 584 583 585
3 586 587 588
3 588 587 589
3 590 591 592
3 592 591 593
3 594 595 580
3 580 595 581
3 596 597 598
3 598 597 599
3 600 601 602
3 602 601 603
3 604 603 196
3 196 603 601
3 605 606 607
3 607 606 608
3 595 609 581
3 581 609 586
3 591 600 593
3 593 600 602
3 597 610 599
3 599 610 577
3 611 609 579
3 579 609 595
3 606 612 613
3 613 612 585
3 614 615 616
3 616 615 617
3 605 618 606
3 606 618 612
3 619 584 612
3 612 584 585
3 613 585 588
3 588 585 583
3 578 620 576
3 576 620 621
3 594 622 578
3 578 622 620
3 588 589 613
3 613 589 623
3 596 605 592
3 592 605 607
3 578 579 594
3 594 579 595
3 582 624 580
3 580 624 625
3 610 611 577
3 577 611 579
3 581 586 583
3 583 586 588
3 576 621 626
3 626 621 627
3 619 614 628
3 628 614 616
3 615 614 598
3 598 614 618
3 626 627 615
3 615 627 617
3 605 596 618
3 618 596 598
3 584 619 629
3 629 619 628
3 580 625 594
3 594 625 622
3 200 199 623
3 623 199 608
3 624 582 629
3 629 582 584
3 604 587 609
3 609 587 586
3 614 619 618
3 618 619 612
3 626 615 599
3 599 615 598
3 576 626 577
3 577 626 599
3 629 628 630
3 630 628 631
3 629 630 624
3 624 630 632
3 624 632 625
3 625 632 633
3 625 633 622
3 622 633 634
3 628 616 631
3 631 616 635
3 616 617 635
3 635 617 636
3 636 617 637
3 637 617 627
3 638 631 639
3 639 631 635
3 640 641 642
3 642 641 643
3 644 645 641
3 641 645 643
3 643 645 646
3 646 645 647
3 646 648 649
3 649 648 650
3 647 651 646
3 646 651 648
3 649 642 646
3 646 642 643
3 642 652 640
3 640 652 653
3 645 644 647
3 647 644 654
3 644 632 654
3 654 632 630
3 644 655 632
3 632 655 633
3 656 655 641
3 641 655 644
3 657 656 640
3 640 656 641
3 647 654 651
3 651 654 638
3 638 654 631
3 631 654 630
3 658 657 653
3 653 657 640
3 659 656 660
3 660 656 657
3 658 661 657
3 657 661 660
3 662 659 663
3 663 659 660
3 659 662 664
3 664 662 665
3 661 666 660
3 660 666 663
3 656 659 655
3 655 659 664
3 655 664 633
3 633 664 634
3 653 667 658
3 658 667 668
3 653 652 667
3 667 652 669
3 648 651 670
3 670 651 638
3 648 670 650
3 650 670 671
3 670 638 672
3 672 638 639
3 671 670 673
3 673 670 672
3 674 675 671
3 671 675 650
3 669 675 667
3 667 675 674
3 622 634 620
3 620 634 676
3 621 677 627
3 627 677 637
3 676 677 620
3 620 677 621
3 665 678 676
3 676 678 677
3 662 679 665
3 665 679 678
3 677 678 637
3 637 678 680
3 676 634 665
3 665 634 664
3 681 636 680
3 680 636 637
3 636 681 635
3 635 681 639
3 681 682 639
3 639 682 672
3 682 681 683
3 683 681 680
3 684 682 685
3 685 682 683
3 678 679 680
3 680 679 683
3 679 686 683
3 683 686 685
3 682 684 672
3 672 684 673
3 687 673 688
3 688 673 684
3 688 689 690
3 690 689 691
3 688 684 689
3 689 684 685
3 688 690 687
3 687 690 668
3 687 668 674
3 674 668 667
3 674 671 687
3 687 671 673
3 679 662 686
3 686 662 663
3 691 686 666
3 666 686 663
3 691 689 686
3 686 689 685
3 690 691 661
3 661 691 666
3 661 658 690
3 690 658 668
3 642 649 652
3 652 649 669
3 669 649 675
3 675 649 650
3 587 158 589
3 589 158 284
3 592 593 596
3 596 593 597
3 610 602 611
3 611 602 603
3 603 604 611
3 611 604 609
3 692 590 607
3 607 590 592
3 593 602 597
3 597 602 610
3 589 284 623
3 623 284 200
3 623 608 613
3 613 608 606
3 587 604 158
3 158 604 196
3 105 30 693
3 693 30 694
3 263 122 695
3 695 122 696
3 122 121 696
3 696 121 697
3 246 698 244
3 244 698 699
3 31 263 700
3 700 263 695
3 282 105 701
3 701 105 693
3 30 31 694
3 694 31 700
3 702 248 701
3 701 248 282
3 244 699 121
3 121 699 697
3 698 246 702
3 702 246 248
3 701 703 702
3 702 703 704
3 702 704 698
3 698 704 705
3 698 705 699
3 699 705 706
3 699 706 697
3 697 706 707
3 701 693 703
3 703 693 708
3 693 694 708
3 708 694 709
3 694 700 709
3 709 700 710
3 711 703 712
3 712 703 708
3 713 714 715
3 715 714 716
3 717 718 713
3 713 718 714
3 719 720 718
3 718 720 714
3 719 721 720
3 720 721 722
3 723 716 720
3 720 716 714
3 716 723 724
3 724 723 725
3 724 726 716
3 716 726 715
3 719 718 727
3 727 718 717
3 717 705 727
3 727 705 704
3 717 728 705
3 705 728 706
3 713 729 717
3 717 729 728
3 729 713 730
3 730 713 715
3 719 727 721
3 721 727 711
3 711 727 703
3 703 727 704
3 726 731 715
3 715 731 730
3 732 729 733
3 733 729 730
3 731 734 730
3 730 734 733
3 735 732 736
3 736 732 733
3 732 735 737
3 737 735 738
3 734 739 733
3 733 739 736
3 729 732 728
3 728 732 737
3 728 737 706
3 706 737 707
3 731 726 740
3 740 726 741
3 726 724 741
3 741 724 725
3 722 721 742
3 742 721 711
3 743 722 744
3 744 722 742
3 742 711 745
3 745 711 712
3 744 742 746
3 746 742 745
3 744 747 743
3 743 747 748
3 725 748 741
3 741 748 747
3 723 720 743
3 743 720 722
3 725 723 748
3 748 723 743
3 696 697 749
3 749 697 707
3 700 695 710
3 710 695 750
3 749 750 696
3 696 750 695
3 738 751 749
3 749 751 750
3 735 752 738
3 738 752 751
3 750 751 710
3 710 751 753
3 749 707 738
3 738 707 737
3 754 709 753
3 753 709 710
3 709 754 708
3 708 754 712
3 754 755 712
3 712 755 745
3 755 754 756
3 756 754 753
3 757 755 758
3 758 755 756
3 751 752 753
3 753 752 756
3 752 759 756
3 756 759 758
3 755 757 745
3 745 757 746
3 760 746 761
3 761 746 757
3 762 761 763
3 763 761 764
3 761 757 764
3 764 757 758
3 761 762 760
3 760 762 740
3 760 740 747
3 747 740 741
3 747 744 760
3 760 744 746
3 752 735 759
3 759 735 736
3 763 759 739
3 739 759 736
3 763 764 759
3 759 764 758
3 762 763 734
3 734 763 739
3 734 731 762
3 762 731 740
3 214 212 205
3 205 212 206
3 206 212 207
3 207 212 189
3 195 575 197
3 197 575 506
3 74 76 283
3 283 76 267
3 272 204 285
3 285 204 181
3 284 180 200
3 200 180 83
3 485 575 139
3 139 575 195
3 139 195 140
3 140 195 194
3 145 271 70
3 70 271 71
3 102 103 274
3 274 103 765
3 765 591 274
3 274 591 590
3 600 591 766
3 766 591 765
3 766 765 767
3 767 765 103
3 767 103 768
3 768 103 101
3 151 769 100
3 100 769 101
3 768 101 98
3 98 101 769
3 770 768 99
3 99 768 98
3 768 770 767
3 767 770 771
3 767 771 766
3 766 771 772
3 196 601 194
3 194 601 772
3 186 72 773
3 773 72 73
3 98 769 96
3 96 769 151
3 180 160 181
3 181 160 285
3 772 271 194
3 194 271 140
3 772 601 766
3 766 601 600
3 607 608 692
3 692 608 199
3 590 692 274
3 274 692 199
3 71 271 771
3 771 271 772
3 771 770 71
3 71 770 73
3 99 773 770
3 770 773 73
3 773 99 186
3 186 99 97
3 240 237 97
3 97 237 186
3 128 32 251
3 27 2 94
3 94 2 61
3 25 0 27
3 27 0 2
3 260 113 261
3 261 113 114
3 94 61 67
3 67 61 62
3 61 60 62
3 62 60 63
3 60 11 63
3 63 11 127
3 11 10 127
3 127 10 13
3 29 12 31
3 31 12 263
3 15 10 29
3 29 10 12
3 29 28 15
3 15 28 226
3 28 104 226
3 226 104 227
3 281 232 104
3 104 232 227
3 249 89 281
3 281 89 232
3 247 43 249
3 249 43 89
3 247 245 43
3 43 245 7
3 262 124 263
3 263 124 122
3 9 1 236
3 236 1 115
3 1 0 115
3 115 0 114
3 0 25 114
3 114 25 261
3 25 24 261
3 261 24 112
3 24 280 112
3 112 280 111
3 280 238 111
3 111 238 250
3 238 237 250
3 250 237 251
3 237 240 251
3 251 240 128
3 240 239 128
3 128 239 129
3 260 36 113
3 113 36 40
3 40 36 41
3 41 36 38
3 91 90 38
3 38 90 41
3 231 228 91
3 91 228 90
3 190 191 231
3 231 191 228
3 253 279 239
3 239 279 129
3 252 55 253
3 253 55 279
3 252 152 198
3 198 152 182
3 54 198 203
3 203 198 176
3 55 252 54
3 54 252 198
3 203 84 54
3 54 84 50
3 85 774 51
3 51 774 78
3 208 775 85
3 85 775 774
3 209 776 208
3 208 776 775
3 188 777 209
3 209 777 776
3 190 235 188
3 188 235 777
3 245 123 7
3 7 123 6
3 123 124 6
3 6 124 236
3 124 262 236
3 236 262 9
3 9 262 8
3 8 262 12
